<?xml version="1.0" encoding="utf-8"?>
<!-- Generator: Adobe Illustrator 17.0.0, SVG Export Plug-In . SVG Version: 6.00 Build 0)  -->
<!DOCTYPE svg PUBLIC "-//W3C//DTD SVG 1.1//EN" "http://www.w3.org/Graphics/SVG/1.1/DTD/svg11.dtd">
<svg version="1.1" id="Layer_1" xmlns="http://www.w3.org/2000/svg" xmlns:xlink="http://www.w3.org/1999/xlink" x="0px" y="0px"
	 width="564.8px" height="332px" viewBox="0 0 564.8 332" style="enable-background:new 0 0 564.8 332;" xml:space="preserve">
<style type="text/css">
	.st0{fill:#606060;}
	.st1{fill:url(#SVGID_1_);}
	.st2{fill:url(#SVGID_2_);}
	.st3{fill:url(#SVGID_3_);}
	.st4{fill:url(#SVGID_4_);}
</style>
<g>
	<path class="st0" d="M0,325.2l4.4-5.3c4,3.5,8.1,5.4,13.2,5.4c4.5,0,7.4-2.2,7.4-5.3V320c0-3-1.7-4.6-9.5-6.4
		c-8.9-2.2-13.9-4.8-13.9-12.5V301c0-7.2,6-12.1,14.3-12.1c6.1,0,10.9,1.9,15.2,5.3l-3.9,5.6c-3.8-2.8-7.5-4.3-11.4-4.3
		c-4.3,0-6.8,2.2-6.8,5v0.1c0,3.2,1.9,4.7,10,6.6c8.9,2.2,13.4,5.3,13.4,12.3v0.1c0,7.8-6.2,12.5-15,12.5
		C11.1,331.9,5,329.7,0,325.2z"/>
	<path class="st0" d="M58.7,313.6v-24.1H66v23.8c0,7.8,4,11.9,10.6,11.9c6.5,0,10.5-3.9,10.5-11.6v-24.1h7.4v23.8
		c0,12.5-7.1,18.8-18,18.8C65.6,332,58.7,325.7,58.7,313.6z"/>
	<path class="st0" d="M123.6,289.4h16.5c9.8,0,15.9,5.6,15.9,14v0.1c0,9.4-7.5,14.3-16.8,14.3h-8.3v13.5h-7.4V289.4z M139.5,311.2
		c5.6,0,9-3.1,9-7.5v-0.1c0-4.9-3.5-7.5-9-7.5h-8.6v15.1H139.5z"/>
	<path class="st0" d="M181.7,289.4h31.1v6.6H189v10.9h21v6.6h-21v11.3h24v6.6h-31.3V289.4z"/>
	<path class="st0" d="M240.4,289.4h18.7c5.3,0,9.4,1.6,12.1,4.2c2.2,2.3,3.5,5.4,3.5,9v0.1c0,6.9-4.1,11-9.9,12.7l11.3,15.9h-8.7
		L257,316.7h-9.2v14.6h-7.4V289.4z M258.5,310.2c5.3,0,8.6-2.8,8.6-7v-0.1c0-4.5-3.2-6.9-8.7-6.9h-10.7v14.1H258.5z"/>
	<path class="st0" d="M299.5,310.5v-0.1c0-11.7,9-21.7,21.6-21.7c7.3,0,11.8,2,16.1,5.7l-4.7,5.6c-3.2-2.8-6.4-4.5-11.7-4.5
		c-7.7,0-13.6,6.8-13.6,14.8v0.1c0,8.6,5.7,15,14.2,15c4,0,7.5-1.3,10.1-3.2v-7.8h-10.7v-6.4h17.8v17.6c-4.1,3.5-10.1,6.5-17.5,6.5
		C308.1,332,299.5,322.7,299.5,310.5z"/>
	<path class="st0" d="M367.5,289.4h7.4v41.9h-7.4V289.4z"/>
	<path class="st0" d="M418.5,289.1h6.8l18.4,42.2h-7.8l-4.2-10.1h-19.8l-4.3,10.1H400L418.5,289.1z M429,314.7l-7.2-16.8l-7.2,16.8
		H429z"/>
	<path class="st0" d="M468.9,289.4h6.8l22.4,29v-29h7.2v41.9h-6.2l-23.1-29.8v29.8h-7.2V289.4z"/>
	<path class="st0" d="M544.1,296.3h-13.3v-6.8h34v6.8h-13.3v35.1h-7.4V296.3z"/>
</g>
<g>
	<radialGradient id="SVGID_1_" cx="223.0517" cy="15.4087" r="224.1368" gradientUnits="userSpaceOnUse">
		<stop  offset="0" style="stop-color:#E2007F"/>
		<stop  offset="0.1446" style="stop-color:#DB0083"/>
		<stop  offset="0.3474" style="stop-color:#C9008D"/>
		<stop  offset="0.5848" style="stop-color:#AB009D"/>
		<stop  offset="0.8462" style="stop-color:#8200B5"/>
		<stop  offset="1" style="stop-color:#6600C4"/>
	</radialGradient>
	<path class="st1" d="M393.1,103.1c-13.2,13.2-32.7,25.6-55.9,34.6c-22,8.5-43.6,12.5-61.6,12.2c-1,2.8-3.1,5.1-6.1,6.3
		c-5.4,2.1-11.4-0.6-13.5-6c-0.4-0.9-0.6-1.9-0.7-2.9c-12.1-3.2-20.7-9.2-24.1-18.1c-9.2-23.8,23.4-58.6,72.7-77.7
		c22.7-8.8,45-12.7,63.4-12.1c-2.8-3.3-5.8-6.4-8.9-9.3c-17.8,2.2-37.3,7.1-57.1,14.7c-30.2,11.7-55.5,27.6-72.4,44.3
		c0.2,0.3,0.3,0.6,0.4,0.9c1.3,3.3-0.3,6.9-3.6,8.2c-1.7,0.7-3.5,0.5-5-0.2c-12.6,15.2-17.9,30.5-13,43.1
		c11.2,28.8,71.2,32.5,134.1,8.1c19.4-7.5,36.7-16.8,51.2-26.8C393.5,116,393.6,109.6,393.1,103.1z"/>
	<radialGradient id="SVGID_2_" cx="223.0526" cy="15.4064" r="224.1402" gradientUnits="userSpaceOnUse">
		<stop  offset="0" style="stop-color:#E2007F"/>
		<stop  offset="0.1446" style="stop-color:#DB0083"/>
		<stop  offset="0.3474" style="stop-color:#C9008D"/>
		<stop  offset="0.5848" style="stop-color:#AB009D"/>
		<stop  offset="0.8462" style="stop-color:#8200B5"/>
		<stop  offset="1" style="stop-color:#6600C4"/>
	</radialGradient>
	<path class="st2" d="M312.6,62.9c-21.4,8.3-38.5,19.9-46.8,30.5c0.7,0.7,1.3,1.6,1.7,2.6c1.5,3.9-0.4,8.3-4.3,9.8
		c-0.9,0.4-1.9,0.5-2.8,0.5c0,1.2,0.2,2.4,0.7,3.5c5,12.9,36.2,12.9,69.7,0c33.5-13,56.5-33.9,51.5-46.9C377.2,50,346,50,312.6,62.9
		z M326.8,103.6c-9.4,3.6-20-1.1-23.6-10.4c-3.6-9.4,1-20,10.4-23.6c9.4-3.6,20,1.1,23.6,10.4C340.8,89.3,336.2,99.9,326.8,103.6z"
		/>
	<radialGradient id="SVGID_3_" cx="223.0539" cy="15.4058" r="224.1339" gradientUnits="userSpaceOnUse">
		<stop  offset="0" style="stop-color:#E2007F"/>
		<stop  offset="0.1446" style="stop-color:#DB0083"/>
		<stop  offset="0.3474" style="stop-color:#C9008D"/>
		<stop  offset="0.5848" style="stop-color:#AB009D"/>
		<stop  offset="0.8462" style="stop-color:#8200B5"/>
		<stop  offset="1" style="stop-color:#6600C4"/>
	</radialGradient>
	<path class="st3" d="M203.4,145.4c-5.6-14.5,0.4-32,14.9-49.3c-0.4-0.5-0.7-1-0.9-1.6c-1.3-3.3,0.4-6.9,3.6-8.2
		c2-0.8,4.1-0.5,5.8,0.6c17.5-17.1,43.1-33.3,73.4-45c19.1-7.4,37.9-12.2,55.3-14.5c-30.1-26.3-73.4-35.4-113.2-20
		c-57.2,22.1-85.6,86.4-63.5,143.6c22.1,57.2,86.4,85.6,143.6,63.5c36.7-14.2,61.6-45.8,68.8-81.7c-13.6,8.9-29.4,17.1-46.7,23.8
		C278.8,182.1,215.6,177.1,203.4,145.4z"/>
	<radialGradient id="SVGID_4_" cx="223.0473" cy="15.4046" r="224.1397" gradientUnits="userSpaceOnUse">
		<stop  offset="0" style="stop-color:#E2007F"/>
		<stop  offset="0.1446" style="stop-color:#DB0083"/>
		<stop  offset="0.3474" style="stop-color:#C9008D"/>
		<stop  offset="0.5848" style="stop-color:#AB009D"/>
		<stop  offset="0.8462" style="stop-color:#8200B5"/>
		<stop  offset="1" style="stop-color:#6600C4"/>
	</radialGradient>
	<path class="st4" d="M304.9,54.3c-46.6,18-77.7,49.6-69.6,70.6c3,7.7,10.8,12.9,21.9,15.5c1.1-1.6,2.8-2.9,4.7-3.7
		c5.3-2,11.2,0.5,13.4,5.7c17.1,0.1,37.8-3.9,59-12.1c24.8-9.6,45.3-23.1,57.7-36.7c-1-5.9-2.4-11.8-4.4-17.7
		c-5.8,14.3-26.5,30.8-54.1,41.4c-36.4,14.1-70.8,12.7-76.9-3.2c-1.1-2.8-1.2-5.9-0.5-9.1c-1.2-0.8-2.2-2-2.7-3.5
		c-1.5-3.9,0.4-8.3,4.3-9.8c1.8-0.7,3.8-0.6,5.5,0c9.3-11.6,26.7-23.5,48.2-31.8c26.2-10.1,51.4-12.2,65.8-6.7
		c-2.3-3.8-4.8-7.4-7.5-10.9C351.6,41.2,328.6,45.1,304.9,54.3z"/>
</g>
</svg>
