<svg xmlns="http://www.w3.org/2000/svg" fill-rule="evenodd" stroke-miterlimit="1.414" viewBox="0 0 330 88" clip-rule="evenodd" stroke-linejoin="round">
  <path fill="#fff" d="M225.88 44.05V44c0-4.558 3.49-8.42 8.397-8.42 2.837 0 4.582.79 6.256 2.21l-1.814 2.163c-1.26-1.07-2.49-1.744-4.56-1.744-3 0-5.28 2.63-5.28 5.74V44c0 3.35 2.21 5.815 5.53 5.815 1.53 0 2.93-.488 3.93-1.232v-3.046h-4.16v-2.49h6.93v6.84c-1.61 1.37-3.91 2.533-6.79 2.533-5.1 0-8.44-3.626-8.44-8.37zm-93.623 1.185v-9.373h2.86v9.257c0 3.02 1.56 4.62 4.118 4.62 2.536 0 4.094-1.51 4.094-4.51v-9.37h2.86v9.23c0 4.86-2.75 7.3-7.01 7.3-4.24 0-6.93-2.44-6.93-7.17zm-22.8 4.535l1.72-2.047c1.558 1.35 3.14 2.117 5.14 2.117 1.768 0 2.884-.837 2.884-2.047v-.046c0-1.163-.65-1.79-3.67-2.49-3.46-.836-5.42-1.86-5.42-4.86v-.046c0-2.79 2.33-4.72 5.56-4.72 2.37 0 4.26.72 5.91 2.05l-1.53 2.16c-1.46-1.09-2.93-1.67-4.42-1.67-1.67 0-2.65.86-2.65 1.93v.05c0 1.26.75 1.82 3.89 2.56 3.45.84 5.21 2.07 5.21 4.77v.05c0 3.05-2.39 4.86-5.81 4.86-2.49 0-4.84-.86-6.79-2.6zm172.484 2.373h-3.02l-1.65-3.932h-7.7l-1.67 3.94h-2.93l7.16-16.4h2.65l7.17 16.4zm-76.16 0h-2.86v-16.28h7.26c2.05 0 3.65.604 4.7 1.628.86.89 1.35 2.1 1.35 3.52v.05c0 2.68-1.6 4.28-3.86 4.93l4.4 6.17h-3.39l-4-5.67h-3.58v5.68zm-45.43 0h-2.86v-16.28h6.42c3.82 0 6.19 2.162 6.19 5.442v.047c0 3.65-2.93 5.558-6.51 5.558h-3.23v5.233zM329 38.513h-5.163v13.63h-2.883v-13.63h-5.164v-2.65H329v2.65zm-136.857-.092h-9.21v4.24h8.163v2.56h-8.164v4.38h9.327v2.56h-12.19V35.87h12.07v2.56zM294.54 52.15h-2.813V35.87h2.65l8.72 11.257V35.86h2.816v16.28h-2.396l-8.976-11.58v11.58zm-39.38 0h-2.862V35.87h2.862v16.28zm21.06-6.465l-2.814-6.512-2.79 6.513h5.605zm-112.546-1.35c2.163 0 3.51-1.21 3.51-2.906v-.05c0-1.91-1.37-2.91-3.51-2.91h-3.326v5.86h3.326zm46.29-.394c2.047 0 3.35-1.07 3.35-2.72v-.05c0-1.74-1.257-2.69-3.373-2.69h-4.16v5.47h4.19z"/>
  <path fill="url(#a)" d="M28.567 3.788C6.357 12.382-4.678 37.352 3.92 59.562c8.59 22.208 33.56 33.244 55.766 24.65 14.26-5.516 23.905-17.777 26.72-31.723-5.28 3.47-11.404 6.63-18.127 9.24-25.53 9.88-50.09 7.91-54.84-4.39-2.18-5.63.16-12.45 5.79-19.13-.15-.19-.26-.39-.35-.62-.5-1.27.14-2.7 1.4-3.19.77-.3 1.61-.18 2.25.24C29.35 28 39.26 21.73 51.02 17.17c7.408-2.86 14.72-4.73 21.5-5.64C64.72 4.718 54.596.87 44.12.87c-5.174-.002-10.433.936-15.55 2.916zm22.895 14.496c-11.708 4.53-21.544 10.736-28.137 17.202.06.107.116.218.16.337.49 1.268-.136 2.695-1.41 3.187-.655.256-1.352.208-1.938-.07-4.91 5.92-6.938 11.848-5.05 16.727 4.333 11.195 27.642 12.607 52.065 3.157 7.517-2.91 14.264-6.51 19.88-10.426.255-2.47.294-4.98.113-7.494-5.12 5.11-12.7 9.95-21.726 13.442-8.55 3.31-16.95 4.848-23.95 4.722-.39 1.083-1.22 2-2.37 2.446-2.09.807-4.45-.232-5.25-2.323-.14-.36-.23-.74-.26-1.12-4.69-1.23-8.05-3.59-9.38-7.01-3.58-9.24 9.07-22.74 28.24-30.17 8.82-3.41 17.48-4.94 24.61-4.7-1.08-1.28-2.23-2.48-3.44-3.62-6.92.86-14.5 2.76-22.19 5.73zm1.417 3.657c-18.09 7-30.19 19.28-27.04 27.43 1.16 2.99 4.2 5 8.49 6.02.44-.63 1.07-1.13 1.84-1.43 2.04-.79 4.35.2 5.2 2.2 6.62.04 14.68-1.51 22.92-4.69 9.63-3.73 17.57-8.96 22.41-14.264-.37-2.3-.93-4.595-1.7-6.87-2.24 5.535-10.3 11.94-21 16.08-14.13 5.467-27.5 4.917-29.88-1.23-.43-1.09-.47-2.282-.19-3.54-.47-.324-.84-.784-1.06-1.353-.59-1.51.15-3.214 1.65-3.793.71-.28 1.463-.25 2.13.02 3.63-4.52 10.38-9.133 18.73-12.37 10.18-3.94 19.98-4.754 25.54-2.596-.9-1.48-1.88-2.89-2.93-4.226-.79-.05-1.6-.077-2.43-.077-6.59 0-14.56 1.55-22.71 4.7zm2.97 3.37c-8.32 3.22-14.98 7.71-18.19 11.85.28.28.5.62.66 1.01.58 1.52-.16 3.22-1.65 3.8-.36.14-.73.2-1.09.2.01.48.09.93.26 1.36 1.94 5.03 14.06 5.03 27.05 0 13-5.03 21.95-13.19 20.01-18.21-.98-2.51-4.5-3.77-9.39-3.77-4.9 0-11.18 1.26-17.68 3.77zM52.2 37.04c-1.407-3.64.406-7.753 4.05-9.163 3.644-1.41 7.754.408 9.163 4.05 1.41 3.644-.408 7.754-4.05 9.164-.837.33-1.7.48-2.547.48-2.84 0-5.53-1.72-6.617-4.52z"/>
  <defs>
    <radialGradient id="a" cx="0" cy="0" r="1" gradientUnits="userSpaceOnUse" gradientTransform="matrix(44.0946 75.3075 -76.0574 43.6598 21.285 6.854)">
      <stop offset="0%" stop-color="#e2007f"/>
      <stop offset="100%" stop-color="#6600c4"/>
    </radialGradient>
  </defs>
</svg>
