<?xml version="1.0" encoding="utf-8"?>
<!-- Generator: Adobe Illustrator 22.0.1, SVG Export Plug-In . SVG Version: 6.00 Build 0)  -->
<svg version="1.1" id="Layer_1" xmlns="http://www.w3.org/2000/svg" xmlns:xlink="http://www.w3.org/1999/xlink" x="0px" y="0px"
	 viewBox="0 0 860 520" style="enable-background:new 0 0 860 520;" xml:space="preserve">
<style type="text/css">
	.st0{fill:#660066;}
	.st1{opacity:0.5;fill:#660066;}
	.st2{fill:none;stroke:#660066;stroke-width:2;stroke-linecap:round;stroke-linejoin:round;}
	.st3{opacity:0.75;}
	.st4{opacity:0.75;fill:#660066;}
	.st5{fill:#FFFFFF;}
</style>
<g>
	<path class="st0" d="M724,225.1c-0.2-0.4-0.2-0.7-0.2-1.1v-2c0-0.8,0.3-1.2,0.9-1.2c0.2,0,0.5,0,0.7,0.1c0.3,0.1,0.6,0.2,1,0.4
		c1.3,0.6,2.8,1.1,4.3,1.4c1.6,0.3,3.1,0.5,4.7,0.5c2.5,0,4.4-0.4,5.7-1.3c1.4-0.9,2-2.1,2-3.7c0-1.1-0.4-2-1.1-2.8
		c-0.7-0.7-2-1.4-4-2.1l-5.7-1.8c-2.9-0.9-5-2.2-6.3-4c-1.3-1.7-2-3.6-2-5.7c0-1.7,0.4-3.1,1.1-4.4c0.7-1.3,1.7-2.3,2.8-3.2
		c1.2-0.9,2.5-1.6,4.1-2c1.6-0.5,3.2-0.7,5-0.7c0.9,0,1.8,0.1,2.6,0.2c0.9,0.1,1.7,0.3,2.5,0.4c0.8,0.2,1.5,0.4,2.2,0.6
		c0.7,0.2,1.2,0.5,1.7,0.7c0.6,0.3,0.9,0.6,1.2,1c0.2,0.3,0.3,0.8,0.3,1.3v1.9c0,0.8-0.3,1.2-0.9,1.2c-0.3,0-0.8-0.2-1.5-0.5
		c-2.2-1-4.8-1.5-7.6-1.5c-2.2,0-4,0.4-5.2,1.1c-1.2,0.7-1.9,1.9-1.9,3.5c0,1.1,0.4,2,1.2,2.8c0.8,0.8,2.2,1.5,4.3,2.2l5.6,1.8
		c2.8,0.9,4.9,2.2,6.1,3.8c1.2,1.6,1.8,3.4,1.8,5.5c0,1.7-0.3,3.2-1,4.6c-0.7,1.4-1.6,2.5-2.9,3.5c-1.2,1-2.7,1.7-4.4,2.2
		c-1.7,0.5-3.6,0.8-5.6,0.8c-2.1,0-4.1-0.2-6.1-0.7c-2-0.5-3.5-1-4.5-1.6C724.6,225.8,724.2,225.5,724,225.1z M663.3,208v-2.9
		c0-3-0.6-5.1-1.9-6.3c-1.2-1.2-3.4-1.8-6.4-1.8c-1.4,0-2.8,0.2-4.2,0.5c-1.4,0.3-2.9,0.8-4.2,1.3c-0.6,0.3-1.1,0.4-1.4,0.5
		c-0.3,0.1-0.5,0.1-0.6,0.1c-0.6,0-0.8-0.4-0.8-1.2v-1.9c0-0.6,0.1-1.1,0.3-1.4c0.2-0.3,0.6-0.6,1.1-0.8c1.4-0.7,3-1.3,5-1.8
		c1.9-0.5,4-0.8,6.1-0.8c4.7,0,8.1,1.1,10.3,3.2c2.2,2.1,3.3,5.4,3.3,9.7v12.8c0,1.5,0.1,2.6,0.4,3.5c0.3,0.9,0.7,1.8,1.3,2.8
		c0.2,0.3,0.3,0.6,0.3,0.9c0,0.4-0.3,0.8-0.8,1.2l-2.5,1.7c-0.4,0.2-0.7,0.3-1,0.3c-0.4,0-0.8-0.2-1.2-0.6c-0.6-0.6-1-1.2-1.4-1.8
		c-0.4-0.7-0.8-1.4-1.2-2.3c-3.1,3.6-6.9,5.4-11.6,5.4c-3.3,0-5.9-0.9-7.8-2.8c-1.9-1.9-2.9-4.4-2.9-7.6c0-3.3,1.2-6,3.6-8.1
		c2.4-2,5.6-3.1,9.6-3.1c1.3,0,2.7,0.1,4.2,0.3C660.2,207.3,661.7,207.6,663.3,208z M663.3,212.4c-1.1-0.3-2.4-0.5-3.6-0.7
		c-1.3-0.2-2.5-0.2-3.7-0.2c-2.6,0-4.6,0.5-5.8,1.6c-1.3,1.1-1.9,2.6-1.9,4.5c0,1.8,0.5,3.2,1.4,4.2c1,0.9,2.3,1.4,4.1,1.4
		c1.3,0,2.6-0.2,4.1-0.7c1.4-0.5,2.7-1.3,3.7-2.5c0.6-0.7,1.1-1.6,1.3-2.5c0.3-0.9,0.4-2.1,0.4-3.4V212.4z M683,225.5
		c0.2,0.8,0.5,1.3,0.8,1.5c0.3,0.3,0.8,0.4,1.5,0.4h3.4c0.7,0,1.3-0.1,1.6-0.4c0.3-0.3,0.6-0.8,0.8-1.6l6.1-25.3l6.1,25.3
		c0.2,0.8,0.4,1.3,0.8,1.6c0.3,0.3,0.8,0.4,1.6,0.4h3.4c0.7,0,1.2-0.1,1.5-0.4c0.3-0.3,0.6-0.8,0.8-1.5l9.5-30.4
		c0.1-0.4,0.2-0.7,0.3-1c0-0.2,0.1-0.4,0.1-0.6c0-0.6-0.3-1-1-1h-3.6c-0.7,0-1.3,0.1-1.5,0.4c-0.3,0.3-0.6,0.8-0.8,1.5l-6.8,26.3
		l-6.2-26.3c-0.2-0.8-0.4-1.3-0.8-1.5c-0.3-0.3-0.8-0.4-1.6-0.4h-3.2c-0.7,0-1.3,0.1-1.6,0.4c-0.3,0.3-0.6,0.8-0.8,1.5l-6.1,26
		l-6.6-26c-0.2-0.8-0.5-1.3-0.8-1.5c-0.3-0.3-0.8-0.4-1.5-0.4h-3.9c-0.6,0-1,0.3-1,1c0,0.3,0.1,0.8,0.3,1.6L683,225.5z"/>
	<path class="st1" d="M743.3,247.6c-12.9,9.5-31.7,14.6-47.9,14.6c-22.6,0-43-8.4-58.5-22.3c-1.2-1.1-0.1-2.6,1.3-1.7
		c16.6,9.7,37.2,15.5,58.5,15.5c14.3,0,30.1-3,44.6-9.1C743.6,243.6,745.4,246,743.3,247.6z M733.2,239.2c-1.1,0.8-0.9,1.9,0.3,1.8
		c4.2-0.5,13.5-1.6,15.1,0.5c1.7,2.1-1.8,10.9-3.4,14.8c-0.5,1.2,0.5,1.7,1.6,0.8c6.9-5.8,8.7-18,7.3-19.7
		C752.8,235.5,740.6,234,733.2,239.2z"/>
</g>
<path class="st2" d="M519.2,203.3c0.1-1.5,0-3,1.6-4.7c3.3-3.1,7.4-5.6,12.3-8.7c2.4-1.2,4.7-2.5,6.9-4c0.5-0.4,1.3-1,1.8-1.5
	c4-3.2,4.9-8.7,2-12.2s-8.4-3.9-12.4-0.8c-0.6,0.5-1.3,1-1.9,1.5c-1.9,1.8-3.8,3.8-5.5,5.8 M482.5,366.8c-0.7-2.1,0.1-3.5,0.6-4.9
	c-0.5-1.1-1-2.2-1.4-3.4c22.8-13.5,39.7-34.9,47.8-60.2c1.1,0.2,2.9,0.5,3.5,0.6c1.2-0.8,2.4-1.9,4.6-1.7c4.4,0.6,9,2.3,14.5,4.2
	c2.4,1.1,4.9,2.1,7.4,2.9c0.6,0.2,1.5,0.3,2.1,0.5c0,0,0.1,0,0.1,0.1h0.1c4.9,1,9.7-1.6,10.7-6.1s-2.1-8.9-7-10.1
	c-0.7-0.2-1.7-0.4-2.4-0.6c-2.7-0.4-5.3-0.6-8-0.6c-5.8-0.6-10.6-1.1-14.9-2.4c-1.7-0.7-3-2.8-3.6-3.6l-3.4-1
	c1.8-12.9,1.2-26-1.7-38.7 M348.5,191.6c-0.9-0.6-2.5-1.8-3-2.1c-1.5,0.2-3,0.7-4.9-0.5c-3.7-2.5-7.1-6-11.2-10.1
	c-1.7-2-3.5-4-5.5-5.8c-0.5-0.4-1.3-1-1.8-1.5c-1.6-1.3-3.7-2.1-5.8-2.2c-2.5-0.1-5,1-6.6,2.9c-2.9,3.6-1.9,9,2,12.2l0.1,0.1
	c0.6,0.4,1.2,1,1.7,1.4c2.2,1.5,4.5,2.8,6.9,4c5,3.1,9.1,5.6,12.3,8.7c1.3,1.4,1.5,3.8,1.7,4.8l2.7,2.4
	c-14.7,22-20.7,48.7-16.9,74.8l-3.5,1c-0.9,1.2-2.2,3.1-3.6,3.6c-4.3,1.4-9.1,1.8-14.9,2.4c-2.7,0.1-5.3,0.3-8,0.6
	c-0.6,0.1-1.5,0.4-2.2,0.5h-0.2c-4.9,1.2-8,5.7-7,10.1c1,4.4,5.8,7.1,10.7,6.1h0.1l0.2-0.1c0.7-0.1,1.6-0.3,2.1-0.5
	c2.5-0.8,5-1.8,7.4-2.9c5.5-2,10-3.6,14.5-4.3c1.9-0.1,3.8,1.1,4.8,1.7l3.6-0.6c8.1,25.1,25.1,46.3,47.9,59.7l-1.5,3.6
	c0.5,1.4,1.1,3.3,0.7,4.7c-1.6,4.2-4.4,8.6-7.5,13.5c-1.6,2.1-3.1,4.3-4.5,6.6l-1.1,2.2c-2.1,4.6-0.6,9.8,3.5,11.8s9.2-0.1,11.5-4.7
	c0.3-0.6,0.8-1.5,1-2.1c0.9-2.5,1.7-5,2.4-7.6c2.2-5.5,3.4-11.3,6.4-14.9c1-0.9,2.2-1.5,3.6-1.7l1.9-3.4c19.9,7.7,41.6,9.2,62.3,4.5
	c4.8-1.1,9.6-2.5,14.2-4.3c0.5,0.9,1.5,2.7,1.8,3.2c1.4,0.5,3,0.7,4.2,2.6c2.3,3.9,3.8,8.4,5.7,14c0.7,2.6,1.5,5.1,2.4,7.6
	c0.3,0.6,0.7,1.5,1,2.1c2.2,4.6,7.3,6.7,11.5,4.7s5.7-7.2,3.5-11.8c-0.3-0.7-0.8-1.6-1.1-2.2 M435.7,154.7c-1.1-1-2.4-1.9-2.7-4.2
	c-0.4-4.5,0.2-9.3,0.9-15c0.5-2.6,0.9-5.2,1.1-7.9v-2.4c0-5.1-3.7-9.2-8.3-9.2c-4.6,0-8.3,4.1-8.3,9.2v2.3c0.2,2.6,0.6,5.3,1.1,7.9
	c0.7,5.8,1.3,10.6,0.9,15c-0.5,1.7-1.4,3.1-2.7,4.3l-0.2,3.5c-5,0.4-10.1,1.2-15,2.3 M366.4,204.3c13.6-13.3,31.1-21.7,50-24
	l-2.5,43.5l-0.2,0.1c-0.2,4-3.6,7.2-7.6,7c-1.4-0.1-2.8-0.5-4-1.4H402 M437.2,180.3c18.8,2.3,36.2,10.8,49.7,24l-35.4,25.2h-0.1
	 M341.4,274.7c-2.1-18.9,2.2-37.9,12.1-54.1l32.6,29.1v0.2c3,2.6,3.4,7.3,0.7,10.3c-0.9,1.1-2.2,1.9-3.6,2.3v0.1 M470.5,262.4v-0.2
	c-3.8-1-6.1-4.9-5.2-8.7c0.3-1.5,1.2-2.9,2.3-3.9v-0.1l32.4-29c9.9,16.1,14.3,35.1,12.5,53.9 M438.9,275.3l-12,5.8l-12-5.8l-3-12.9
	 M456.5,297.7c-1.6-3.8,0.2-8.1,3.9-9.7c0.8-0.3,1.7-0.5,2.5-0.6c0.6,0,1.1,0,1.7,0.1l0.1-0.1l43.2,7.3
	c-6.4,17.9-18.5,33.2-34.6,43.4 M346,294.9l42.8-7.3l0.1,0.1c0.5-0.1,1-0.1,1.4-0.1c4,0.1,7.3,3.4,7.2,7.4c0,1-0.2,1.9-0.6,2.8
	l0.1,0.2l-16.6,40.1 M399.2,347.1l21.1-38.1c1.2-2.3,3.6-3.7,6.2-3.8c1.2,0,2.4,0.2,3.4,0.7c1.4,0.7,2.5,1.8,3.3,3.1h0.2l21.1,38.2
	c-2.8,0.9-5.6,1.7-8.4,2.4"/>
<path class="st2" d="M476.3,384.2H397 M604.6,355.5c-13.5,17.6-34.7,28.7-58.1,28.7h-42.3 M566.7,193.8c2.8,6.2,4.2,12.9,4.2,19.7
	c0,9.3-2.7,18.5-7.8,26.3c39.3,9.2,63.8,48.5,54.6,87.8c-0.9,4-2.2,7.8-3.7,11.5 M392.9,116.9c8.8,1.2,17.4,3.5,25.6,7 M236.1,318.4
	c-1.4-6.2-2.2-12.7-2.2-19.3c0-33.1,19.1-63.3,49.1-77.3c-0.2-2.7-0.4-5.5-0.4-8.2c0-18.5,5.2-35.8,14.1-50.6 M359.8,384.2h-40.5
	c-34.1,0-63.5-20-77.2-48.9 M211.7,249.7h-102 M771,288H669 M484,53H382 M301.7,326.9c0,4.3-3.5,7.7-7.7,7.7H192
	c-4.3,0-7.7-3.4-7.7-7.7s3.4-7.7,7.7-7.7h51 M150.4,283.4h47 M195.9,359.5h47 M549,411h47 M574.8,170.4h47 M210,188h47 M329,88h47"
	/>
<g class="st3">
	<path class="st0" d="M499,88.1c-2.5,0-4.7,0.7-6.6,2.1c-1.1,0.8-2.2,2.3-3.2,3.7c-0.6-2.3-1.3-5.4-1.3-5.4l-7.2,0
		c-0.4,0-0.7,0.3-0.7,0.7v2.7c0,0.4,0.3,0.7,0.7,0.7l4,0c0,0,1,3.5,1.6,6c-0.8,1.5-1.7,2.8-2.3,4.2c-4,7.7-5.8,13-5.8,18.8
		c0,6.9,3,11.4,7.6,11.4c5.3,0,8.4-4.7,8.4-12.9c0-0.2,0-0.7,0-1c1.3,0.6,3,1.2,4.5,1.2c5.8,0,10.6-3.9,11.7-9.2
		c0.4-2.2,0.6-4.2,0.6-6.9c0-2.9-0.3-5.4-0.9-7.4C508.4,91.2,504.4,88.1,499,88.1z M485.8,128.9c-2.2,0-3.4-3.7-3.4-7.4
		c0-4.7,1.3-9.8,5.4-17.7c1.2,5.5,2.2,12.2,2.2,16.3C490,122.8,489.6,128.9,485.8,128.9z M506.2,110.3c-0.6,3.3-3.9,5.9-7.7,5.9
		c-1.6,0-3.2-0.6-4.7-1c-0.6-5.1-1.9-11.4-3.1-16.3c0.8-1.4,1.3-2.4,2.6-4c1.9-2.3,3.8-2.8,5.6-2.8c4.4,0,6.2,3.2,7,5.8
		c0.3,1.1,0.7,3.2,0.7,6.3C506.7,106.7,506.6,108.4,506.2,110.3z"/>
	<path class="st0" d="M640.6,114l-2.1-1.7c-0.1-0.1-0.3-0.2-0.5-0.2c-0.2,0-0.4,0.1-0.5,0.2h0c-0.7,0.8-2,2.2-2.1,2.3
		c-0.8,0.7-1.8,1.3-2.9,1.3c-2,0-3.3-0.6-3.3-4.2V92.6h6.8c0.4,0,0.7-0.3,0.7-0.7v-2.7c0-0.4-0.3-0.7-0.7-0.7h-5.4v0H629l0-7.9
		c0-0.4-0.3-0.7-0.7-0.7h-2.7c-0.4,0-0.7,0.3-0.7,0.7v7.9h-3.3c-0.4,0-0.7,0.3-0.7,0.7v2.7c0,0.4,0.3,0.7,0.7,0.7h3.3v0V107
		c-0.9,1.1-3.6,3.9-4.9,5.2c-0.3,0.3-0.5,0.5-0.8,0.7c-1.4,1.2-2.9,1.9-4.7,2.5c-2.2,0.7-4,0.9-6.8,0.9c-4.2,0-6.3-2.9-6.3-2.9
		c0.4-0.4,5.2-5.2,5.2-5.2c4-4.1,7.2-8.1,7.9-8.8c0,0,0.8-0.9,1.5-2.1c1.5-2.8,1.5-5.7-1-7.7c-1.2-1-3.4-1.6-7.1-1.5
		c-5.6,0.1-11.1,3.4-12.2,9.1c-0.3,1.6-0.6,3.4-0.6,6.8c0,0.8,0,1.9,0,2.6c0.1,1.6,0.2,3,0.5,4.5c0.1,0.7,0.4,1.1,0.6,2
		c-0.6,0.7-1.2,1.4-2.1,2.1c-0.7,0.5-1.7,0.7-2.3,0.7l-0.2,0c-1.5,0-2.5-0.8-3.7-2.1l-0.2-0.2c-0.6-0.6-4.9-6.1-8.1-10.3l7.1-7.5
		l4-4.2c0.3-0.3,0.3-0.8,0-1l-2-1.9c-0.3-0.3-0.8-0.3-1,0l-0.5,0.6l0,0l-10.6,11.2l-2.4,2.5V74.7c0-0.4-0.3-0.7-0.7-0.7h-2v0h-0.7
		c-0.4,0-0.7,0.3-0.7,0.7V84h0v23.4c-0.4,0.4-2.3,2.4-3.6,3.9c-1.2,1.3-2.8,2.9-4.7,3.9c-1.4,0.7-2.3,1-5.9,1c-3.8,0-7-2.6-7.6-5.9
		c-0.4-1.9-0.5-3.6-0.5-6.1c0-2.6,0.2-4.8,0.6-6.4c0.7-3.2,3.9-5.7,7.6-5.7c2.9,0,5.3,1.3,6.4,3.2c0.1,0.2,0.3,0.4,0.5,0.4
		c0.2,0.1,0.4,0,0.6-0.1l2.4-1.3c0.2-0.1,0.3-0.3,0.3-0.6c0-0.1,0-0.2-0.1-0.3l-0.2-0.3c-1.9-3.2-5.6-5.1-10-5.1
		c-5.7,0-10.6,3.7-11.7,8.8c-0.4,1.9-0.7,4.4-0.7,7.3c0,2.7,0.2,4.7,0.6,6.9c0.1,0.6,0.4,1.4,0.6,1.9c0,0-0.6,0.8-1.7,1.8
		c-1.4,1.3-3,1.2-3.7,1c-1.2-0.2-1.7-1.4-1.7-2.6c0,0,0-13.6,0-14.5c0-6.2-4.8-10.6-11.8-10.6c-3.6,0-7.2,1.5-9.5,4.1
		c-0.4,0.4-0.7,0.9-1,1.4c0,0-0.1,0.2-0.1,0.3c0,0.3,0.2,0.5,0.4,0.7v0l2.3,1.2h0c0.1,0.1,0.2,0.1,0.3,0.1c0.3,0,0.5-0.1,0.6-0.3
		c0,0,0.2-0.3,0.5-0.6c1.5-1.7,3.9-2.9,6.4-2.9c4.6,0,7.5,2.7,7.5,6.5c0,0.3,0,0.5,0,0.9l-4,0c-14.1,0-15.2,9-15.2,11.7
		c0,2.2,0.7,4.2,2.2,5.8c2.2,2.6,5,3.1,7.5,3.1c2.3,0,5-1,7.1-2.3c1-0.6,2-1.6,2.8-2.6c0.7,2.9,3,4.9,5.7,4.9c2.1,0,3.3-0.4,5.1-1.6
		c0.5-0.4,1.6-1.3,2.4-2.3c2.2,2.5,5.3,3.8,9,3.8c3.7,0,5.4-0.1,7.8-1.4c1.1-0.6,2.6-1.6,3.8-2.8c0.9-0.9,1.8-1.9,2.6-2.9l0,6.2
		c0,0.4,0.3,0.7,0.7,0.7h2.7c0.4,0,0.7-0.3,0.7-0.7v-10.4l2.6-2.7c2.9,3.7,7.3,9.3,8,10.1l0.2,0.2c1.3,1.3,3.2,3.7,6.6,3.7
		c0.1,0,1.3,0,2.1-0.3c2.4-1.1,4.2-2.9,4.7-3.5c0.4,0.4,1,1,1.4,1.3c2.3,1.8,5.1,2.5,8.4,2.5c3.1,0,5.3-0.1,7.5-0.9
		c1.8-0.6,5-2.5,6.8-4.3c0.6-0.6,1.6-1.5,2.4-2.5c0.3,5,2.7,7.6,7.6,7.6c2.8,0,4.4-1.6,5.3-2.5c0.1-0.1,2.8-2.8,2.8-2.8
		c0.1-0.1,0.2-0.3,0.2-0.5C640.8,114.3,640.7,114.2,640.6,114z M533.2,107.4c0,4.3-4.7,8.5-8.9,8.5c-3.1,0-4.3-0.8-4.9-1.5
		c-0.8-0.9-1.1-1.9-1.1-3.1c0-4.9,3.9-7.6,11-7.6l3.9,0V107.4z M599.6,109.3c0,0-0.3-1.7-0.3-4.1c0-0.9,0-1.9,0-3.1
		c0-1,0.2-2.5,0.3-3.5c0.4-2.4,1.5-3.8,2.8-4.9c1.5-1.2,3.6-1.9,6.8-1.9c3.1,0,3.6,1.9,3,3c-1.4,2.7-4.8,5.8-8.2,9.5L599.6,109.3z"
		/>
</g>
<g class="st3">
	<path class="st0" d="M254.1,443.6v-8.2c8.7,0,15.4-8.6,12-17.6c-1.2-3.4-3.8-6.1-7.3-7.3c-9-3.2-17.5,3.5-17.5,12h-8.2
		c0-13.7,13.3-24.5,27.8-20c6.3,2,11.3,7,13.3,13.3C278.7,430.3,267.9,443.6,254.1,443.6z"/>
	<path class="st0" d="M254.2,435.4H246v-8.1h8.2V435.4z M246,441.8h-6.2v-6.3h6.2L246,441.8L246,441.8z M239.8,435.4h-5.2v-5.2h5.2
		L239.8,435.4z"/>
	<g>
		<path class="st0" d="M308,413.7c-2.4-1.6-5.5-2.5-9-2.5h-7.6v24.2h7.6c3.5,0,6.5-0.9,9-2.6c1.4-1,2.4-2.2,3.1-3.8
			c0.7-1.6,1.1-3.6,1.1-5.7c0-2.1-0.4-4.1-1.1-5.6C310.4,415.8,309.4,414.6,308,413.7z M296,415.3h2.4c2.6,0,4.8,0.5,6.6,1.6
			c1.9,1.1,2.7,3.2,2.7,6.3c0,3.1-1,5.4-2.7,6.6c-1.6,1-3.7,1.6-6.5,1.6H296C296,431.5,296,415.3,296,415.3z M317.6,410.8
			c-0.7,0-1.4,0.2-1.9,0.7c-0.6,0.5-0.9,1.1-0.9,1.9s0.2,1.4,0.7,1.9s1.1,0.7,1.9,0.7c0.7,0,1.4-0.2,1.9-0.7s0.7-1.1,0.7-1.9
			s-0.2-1.4-0.7-1.9C318.9,411.1,318.3,410.8,317.6,410.8z M315.3,418.3h4.3v17h-4.3V418.3z M335.2,419.8c-1.2-1.1-2.7-1.9-4.3-1.9
			c-2.4,0-4.3,0.9-5.8,2.5c-1.5,1.6-2.4,3.6-2.4,6.1c0,2.4,0.7,4.5,2.2,6.1c1.5,1.6,3.5,2.4,5.8,2.4c1.6,0,3.1-0.5,4.2-1.4v0.4
			c0,1.4-0.4,2.5-1.1,3.2c-0.7,0.7-1.7,1.1-3.1,1.1c-2,0-3.2-0.7-4.7-2.9l-3,2.9l0.1,0.1c0.6,0.9,1.6,1.7,2.9,2.6
			c1.2,0.9,2.9,1.2,4.7,1.2c2.6,0,4.6-0.7,6.1-2.4s2.4-3.6,2.4-6.2v-15.4H335v1.5L335.2,419.8L335.2,419.8z M334.1,429.8
			c-0.7,0.9-1.7,1.2-3,1.2c-1.2,0-2.2-0.4-3-1.2c-0.7-0.9-1.1-2-1.1-3.4s0.4-2.5,1.1-3.4c0.7-0.9,1.7-1.2,3-1.2c1.2,0,2.2,0.4,3,1.2
			c0.7,0.9,1.1,2,1.1,3.4S334.9,429,334.1,429.8z M343.2,418.3h4.3v17h-4.3V418.3z M345.3,410.8c-0.7,0-1.4,0.2-1.9,0.7
			s-0.7,1.1-0.7,1.9s0.2,1.4,0.7,1.9s1.1,0.7,1.9,0.7c0.7,0,1.4-0.2,1.9-0.7c0.5-0.5,0.7-1.1,0.7-1.9s-0.2-1.4-0.7-1.9
			C346.7,411.1,346,410.8,345.3,410.8z M356.8,413.7h-4.2v4.6h-2.5v3.8h2.5v7.1c0,2.2,0.5,3.8,1.4,4.7c0.9,0.9,2.5,1.4,4.6,1.4
			c0.7,0,1.4,0,2.1-0.1h0.2v-3.8l-1.5,0.1c-1,0-1.7-0.1-2-0.5c-0.4-0.4-0.5-1.1-0.5-2.2v-6.5h4v-3.9h-4v-4.7H356.8z M381,411.2h4.3
			v24.2H381V411.2z M428.7,429.4c-0.7,0.9-1.6,1.6-2.1,2c-0.6,0.4-1.4,0.6-2.2,0.6c-1.2,0-2.2-0.5-3.1-1.4c-0.9-1-1.2-2.1-1.2-3.6
			c0-1.5,0.4-2.6,1.2-3.6c0.9-1,1.9-1.4,3.1-1.4c1.4,0,2.9,0.9,4.1,2.4l2.9-2.7c-1.9-2.4-4.2-3.5-7.1-3.5c-2.4,0-4.3,0.9-6.1,2.6
			c-1.6,1.7-2.5,3.8-2.5,6.3s0.9,4.7,2.5,6.3c1.6,1.7,3.7,2.6,6.1,2.6c3.1,0,5.6-1.4,7.3-3.8L428.7,429.4z M446.2,420.8
			c-0.6-0.9-1.5-1.5-2.5-2c-1-0.5-2.2-0.7-3.6-0.7c-2.4,0-4.3,0.9-5.8,2.6c-1.4,1.7-2.1,3.8-2.1,6.3c0,2.6,0.7,4.7,2.4,6.3
			c1.6,1.6,3.6,2.5,6.2,2.5c2.9,0,5.2-1.1,7.1-3.5l0.1-0.1l-2.9-2.7c-0.2,0.4-0.6,0.6-1,1c-0.4,0.4-0.9,0.7-1.2,0.9
			c-0.6,0.4-1.4,0.5-2.1,0.5c-1.2,0-2.1-0.4-3-1c-0.7-0.6-1.1-1.5-1.2-2.6h11.4v-1.6c0-1.1-0.1-2.2-0.5-3.2
			C447.3,422.5,446.8,421.5,446.2,420.8L446.2,420.8z M436.9,424.8c0.2-0.9,0.6-1.5,1.1-2c0.6-0.6,1.4-0.9,2.2-0.9
			c1,0,1.9,0.2,2.4,0.9c0.5,0.5,0.7,1.2,0.9,2H436.9z M462.7,419.7c-1.2-1.1-3.1-1.6-5.4-1.6c-1.4,0-2.7,0.4-4,0.9
			c-1.1,0.6-2.2,1.5-2.9,2.7l2.7,2.6c1.1-1.9,2.4-2.5,4.1-2.5c0.9,0,1.6,0.2,2.2,0.7s0.9,1.1,0.9,1.9v0.9c-1.1-0.4-2.1-0.5-3.1-0.5
			c-2.1,0-3.8,0.5-5.2,1.5c-1.4,1-2,2.5-2,4.2c0,1.6,0.5,2.9,1.6,3.8c1.1,1,2.5,1.4,4.1,1.4c1.6,0,3.1-0.6,4.6-1.7v1.4h4.2v-10.9
			C464.7,422.4,464.1,420.8,462.7,419.7L462.7,419.7z M455.1,428.9c0.5-0.4,1.1-0.5,2-0.5c1,0,2.1,0.2,3.2,0.6v1.6
			c-1,0.9-2.2,1.4-3.7,1.4c-0.7,0-1.4-0.1-1.7-0.5c-0.4-0.4-0.6-0.7-0.6-1.2C454.4,429.6,454.7,429.2,455.1,428.9L455.1,428.9z
			 M481.3,419.9c-1.2-1.4-2.9-2-5-2c-1.7,0-3.1,0.5-4.1,1.5v-1H468v17h4.3V426c0-1.2,0.2-2.4,0.9-3.1c0.6-0.7,1.5-1.1,2.5-1.1
			c1,0,1.7,0.4,2.2,1c0.5,0.6,0.9,1.6,0.9,2.7v9.9h4.3v-9.9C483,423.1,482.4,421.3,481.3,419.9z M375.6,419.7
			c-1.2-1.1-3.1-1.6-5.4-1.6c-1.4,0-2.7,0.4-4,0.9c-1.1,0.6-2.2,1.5-2.9,2.7l2.7,2.6c1.1-1.9,2.4-2.5,4.1-2.5c0.9,0,1.6,0.2,2.2,0.7
			s0.9,1.1,0.9,1.9v0.9c-1.1-0.4-2.1-0.5-3.1-0.5c-2.1,0-3.8,0.5-5.2,1.5c-1.4,1-2,2.5-2,4.2c0,1.6,0.5,2.9,1.6,3.8
			c1.1,1,2.5,1.4,4.1,1.4s3.1-0.6,4.6-1.7v1.4h4.2v-10.9C377.6,422.4,376.9,420.8,375.6,419.7L375.6,419.7z M367.9,428.9
			c0.5-0.4,1.1-0.5,2-0.5c1,0,2.1,0.2,3.2,0.6v1.6c-1,0.9-2.2,1.4-3.7,1.4c-0.7,0-1.4-0.1-1.7-0.5c-0.4-0.4-0.6-0.7-0.6-1.2
			C367.3,429.6,367.6,429.2,367.9,428.9L367.9,428.9z M400.8,435.8c-6.8,0-12.4-5.6-12.4-12.4S394,411,400.8,411s12.4,5.6,12.4,12.4
			S407.7,435.8,400.8,435.8z M400.8,415.2c-4.5,0-8.1,3.6-8.1,8.1c0,4.5,3.6,8.1,8.1,8.1c4.5,0,8.1-3.6,8.1-8.1
			C408.9,418.8,405.3,415.2,400.8,415.2z"/>
	</g>
</g>
<g>
	<g class="st3">
		<path class="st0" d="M193.8,113.4h-35.5c-2.2,0-4,1.8-4,4v9.5h9.8v-1.6c0-1.2,1-2.2,2.2-2.2h19.5c1.2,0,2.2,1,2.2,2.2v1.6h9.8
			v-9.5C197.9,115.2,196,113.4,193.8,113.4z"/>
		<path class="st0" d="M188,144c0,1.2-1,2.2-2.2,2.2h-19.5c-1.2,0-2.2-1-2.2-2.2v-1.6h-9.8v9.5c0,2.2,1.8,4,4,4h35.5
			c2.2,0,4-1.8,4-4v-9.5H188V144z"/>
		<rect x="154.3" y="129.8" class="st0" width="9.8" height="9.8"/>
		<rect x="188" y="129.8" class="st0" width="9.8" height="9.8"/>
	</g>
	<path class="st0" d="M394.3,143c0-1.5-1.2-2.8-2.8-2.8s-2.8,1.2-2.8,2.8s1.2,2.8,2.8,2.8S394.3,144.5,394.3,143z M391.5,145.1
		c-1.2,0-2.1-0.9-2.1-2.1s0.9-2.1,2.1-2.1s2.1,0.9,2.1,2.1C393.6,144.1,392.7,145.1,391.5,145.1z"/>
	<path class="st0" d="M392.6,142.5L392.6,142.5c0-0.3-0.1-0.5-0.2-0.6c-0.2-0.2-0.4-0.3-0.7-0.3h-1v2.7h0.6v-0.9h0.4l0.5,0.9h0.6
		l-0.6-1C392.4,143.1,392.6,142.9,392.6,142.5z M392,142.5c0,0.2-0.2,0.4-0.4,0.4h-0.4v-0.8h0.4C391.8,142.1,392,142.2,392,142.5
		L392,142.5L392,142.5z"/>
	<path class="st0" d="M228,134.9v-0.4c0-6.5-4.3-11.3-10.1-11.3c-5.9,0-10.2,4.8-10.2,11.3v0.4c0,6.5,4.3,11.3,10.1,11.3
		C223.7,146.2,228,141.4,228,134.9z M212.4,134.8v-0.3c0-4.1,2.1-7.2,5.4-7.2c3.2,0,5.5,3.1,5.5,7.2v0.3c0,4.1-2.1,7.2-5.4,7.2
		C214.7,142.1,212.4,138.9,212.4,134.8z"/>
	<path class="st0" d="M250.5,135v-0.6c0-7.5-4.2-11.2-8.6-11.2c-3.2,0-5.1,1.8-6.5,4v-3.5h-4.7V152h4.7v-9.6c1.3,2,3.3,3.8,6.5,3.8
		C246.4,146.2,250.5,142.4,250.5,135z M235.3,134.9v-0.4c0-4.3,2.4-7.1,5.3-7.1c2.8,0,5.1,2.7,5.1,7.1v0.4c0,4.4-2.3,7.1-5.1,7.1
		C237.8,142,235.3,139.2,235.3,134.9z"/>
	<path class="st0" d="M270.9,142.8l-2.5-2.9c-1.5,1.4-3,2.3-5.1,2.3c-2.9,0-5.2-2-5.6-5.7h13.8c0-0.7,0-1.3,0-1.6
		c0-6.6-3.2-11.6-9.2-11.6c-5.4,0-9.4,4.8-9.4,11.4v0.3c0,6.9,4.4,11.3,10.1,11.3C266.4,146.2,268.9,144.9,270.9,142.8z
		 M262.5,127.2c2.8,0,4.3,2.5,4.6,6h-9.3C258.1,129.5,259.9,127.2,262.5,127.2z"/>
	<path class="st0" d="M285.5,123.2c-3,0-4.8,1.7-6,3.7v-3.3h-4.7v22.1h4.7v-13.4c0-3,1.7-4.9,4.2-4.9c2.5,0,4,1.7,4,4.8v13.5h4.7
		v-14.8C292.3,126.2,289.7,123.2,285.5,123.2z"/>
	<path class="st0" d="M311.3,139.4L311.3,139.4c0-3.5-2.6-5.1-6-6.6c-2.6-1.2-4.3-1.9-4.3-3.4v-0.1c0-1.2,1-2.2,2.8-2.2
		c1.8,0,3.6,0.8,5.3,2l2-3.5c-2.1-1.5-4.7-2.4-7.2-2.4c-4.1,0-7.3,2.5-7.3,6.5v0.1c0,3.6,2.8,5.1,6,6.5c2.6,1.1,4.3,1.8,4.3,3.4v0
		c0,1.4-1.1,2.4-3.1,2.4s-4.1-1-6.1-2.6l-2.2,3.4c2.5,2.1,5.6,3.1,8.2,3.1C308,146.2,311.3,143.8,311.3,139.4z"/>
	<path class="st0" d="M325.9,145.1v-3.9c-0.8,0.4-1.6,0.6-2.5,0.6c-1.5,0-2.4-0.7-2.4-2.4v-11.8h5v-4h-5v-6h-4.7v6h-2.4l0.8,4h1.6
		v12.7c0,4.3,2.5,5.7,5.7,5.7C323.5,146.1,324.8,145.7,325.9,145.1z"/>
	<path class="st0" d="M343.9,125.6c-1.4-1.5-3.6-2.3-6.5-2.3c-3,0-5.2,0.7-7.3,1.8l1.3,3.8c1.5-0.7,3.2-1.3,5.3-1.3
		c3,0,4.8,1.5,4.8,4.5v0.9c-1.5-0.5-3-0.9-5.1-0.9c-4.7,0-7.8,2.3-7.8,7.1v0.2c0,4.3,3.1,6.8,6.8,6.8c2.9,0,4.8-1.3,6.1-3.1v2.7h4.6
		V132C346.2,129.3,345.4,127.1,343.9,125.6z M341.6,138.3c0,2.5-2.1,4.3-4.8,4.3c-2,0-3.6-1.3-3.6-3.5V139c0-2.3,1.6-3.7,4.3-3.7
		c1.6,0,3,0.3,4.1,0.8V138.3z"/>
	<path class="st0" d="M366.2,142.9l-2.5-3.1c-1.3,1.3-2.6,2.3-4.5,2.3c-3.2,0-5.5-2.9-5.5-7.2v-0.2c0-4.2,2.3-7.1,5.3-7.1
		c2,0,3.3,1,4.5,2.2l2.6-3.5c-1.8-1.8-3.9-3-7.1-3c-5.8,0-10.1,4.8-10.1,11.3v0.4c0,6.6,4.2,11.2,9.9,11.2
		C362.2,146.2,364.4,144.8,366.2,142.9z"/>
	<g>
		<polygon class="st0" points="380.6,134.3 377.3,137.8 381.7,145.7 387.2,145.7 		"/>
		<polygon class="st0" points="381.4,123.6 373.9,133.4 373.9,115.6 369.1,115.6 369.1,145.7 373.9,145.7 373.9,139.4 387,123.6 		
			"/>
	</g>
</g>
<g>
	<path class="st4" d="M649.8,333.9h45.4l-7.4-12.8c-1-1.8-2.8-3.1-5.1-3.1h-38.5c-2.1,0-4.1,1-5.1,3.1l-11.8,20.8l22.6,39.2
		C649.8,381.1,649.8,333.9,649.8,333.9z"/>
	<path class="st1" d="M649.8,381.1l-22.6-39.2l-7.4,12.8c-1,1.8-1,4.1,0,5.9l19.2,33.3c1,1.8,3.1,3.1,5.1,3.1H668l22.8-39.5
		L649.8,381.1z"/>
	<path class="st0" d="M695.2,333.9h-45.4l40.8,23.6L667.7,397h14.9c2.1,0,4.1-1,5.1-3.1l19.2-33.6c1-1.8,1-4.1,0-5.9L695.2,333.9z"
		/>
	<path class="st5" d="M677,333.9l13.6,23.6L677,381.1h-27.2l-13.6-23.6l13.6-23.6H677"/>
</g>
</svg>
