<?xml version="1.0" encoding="utf-8"?>
<!-- Generator: Adobe Illustrator 22.0.1, SVG Export Plug-In . SVG Version: 6.00 Build 0)  -->
<svg version="1.1" id="Layer_1" xmlns="http://www.w3.org/2000/svg" xmlns:xlink="http://www.w3.org/1999/xlink" x="0px" y="0px"
	 viewBox="0 0 860 520" style="enable-background:new 0 0 860 520;" xml:space="preserve">
<style type="text/css">
	.st0{fill:#FFFFFF;stroke:#660066;stroke-width:2;stroke-miterlimit:10;}
	.st1{opacity:0.25;fill:#FFFFFF;stroke:#660066;stroke-width:2;stroke-miterlimit:10;}
	.st2{opacity:0.75;fill:#FFFFFF;stroke:#660066;stroke-width:2;stroke-miterlimit:10;}
	.st3{opacity:0.1;fill:#FFFFFF;stroke:#660066;stroke-width:2;stroke-miterlimit:10;}
	.st4{opacity:0.2;fill:#FFFFFF;stroke:#660066;stroke-width:2;stroke-miterlimit:10;}
	.st5{fill:none;stroke:#660066;stroke-width:2;stroke-linecap:round;stroke-linejoin:round;}
	.st6{fill:none;stroke:#660066;stroke-width:1.5979;stroke-linecap:round;stroke-linejoin:round;}
	.st7{fill:none;stroke:#660066;stroke-width:1.7205;stroke-linecap:round;stroke-linejoin:round;}
</style>
<path class="st0" d="M237.9,200.1H128.7c-3.8,0-6.8,3.2-6.8,7.2V233c0,4,3,7.2,6.8,7.2h171.7c3.8,0,6.8-3.2,6.8-7.2v-25.7
	c0-4-3-7.2-6.8-7.2 M131.9,218v-4.9c0-1.3,1-2.4,2.3-2.4h125c1.3,0,2.3,1.1,2.3,2.4v14.1c0,1.3-1,2.4-2.3,2.4H164 M271.5,222.3v-9.3
	c0-1.3,1-2.4,2.2-2.4h21.2c1.2,0,2.2,1.1,2.2,2.4v14.1c0,1.3-1,2.4-2.2,2.4h-10.8"/>
<path class="st0" d="M237.9,255.5H128.7c-3.8,0-6.8,3.2-6.8,7.2v25.7c0,4,3,7.2,6.8,7.2h171.7c3.8,0,6.8-3.2,6.8-7.2v-25.7
	c0-4-3-7.2-6.8-7.2 M131.9,273.5v-4.9c0-1.3,1-2.4,2.3-2.4h125c1.3,0,2.3,1.1,2.3,2.4v14.1c0,1.3-1,2.4-2.3,2.4H164 M271.5,277.8
	v-9.3c0-1.3,1-2.4,2.2-2.4h21.2c1.2,0,2.2,1.1,2.2,2.4v14.1c0,1.3-1,2.4-2.2,2.4h-10.8"/>
<path class="st0" d="M237.9,310.9H128.7c-3.8,0-6.8,3.2-6.8,7.2v25.7c0,4,3,7.2,6.8,7.2h171.7c3.8,0,6.8-3.2,6.8-7.2v-25.7
	c0-4-3-7.2-6.8-7.2 M131.9,328.9v-4.9c0-1.3,1-2.4,2.3-2.4h125c1.3,0,2.3,1.1,2.3,2.4V338c0,1.3-1,2.4-2.3,2.4H164 M271.5,333.2
	v-9.3c0-1.3,1-2.4,2.2-2.4h21.2c1.2,0,2.2,1.1,2.2,2.4V338c0,1.3-1,2.4-2.2,2.4h-10.8"/>
<path class="st1" d="M460.1,200.1H350.9c-3.8,0-6.8,3.2-6.8,7.2V233c0,4,3,7.2,6.8,7.2h171.7c3.8,0,6.8-3.2,6.8-7.2v-25.7
	c0-4-3-7.2-6.8-7.2 M354.1,218v-4.9c0-1.3,1-2.4,2.3-2.4h125c1.3,0,2.3,1.1,2.3,2.4v14.1c0,1.3-1,2.4-2.3,2.4h-95.2 M493.7,222.3
	v-9.3c0-1.3,1-2.4,2.2-2.4h21.2c1.2,0,2.2,1.1,2.2,2.4v14.1c0,1.3-1,2.4-2.2,2.4h-10.8"/>
<path class="st2" d="M460.1,255.5H350.9c-3.8,0-6.8,3.2-6.8,7.2v25.7c0,4,3,7.2,6.8,7.2h171.7c3.8,0,6.8-3.2,6.8-7.2v-25.7
	c0-4-3-7.2-6.8-7.2 M354.1,273.5v-4.9c0-1.3,1-2.4,2.3-2.4h125c1.3,0,2.3,1.1,2.3,2.4v14.1c0,1.3-1,2.4-2.3,2.4h-95.2 M493.7,277.8
	v-9.3c0-1.3,1-2.4,2.2-2.4h21.2c1.2,0,2.2,1.1,2.2,2.4v14.1c0,1.3-1,2.4-2.2,2.4h-10.8"/>
<path class="st0" d="M460.1,310.9H350.9c-3.8,0-6.8,3.2-6.8,7.2v25.7c0,4,3,7.2,6.8,7.2h171.7c3.8,0,6.8-3.2,6.8-7.2v-25.7
	c0-4-3-7.2-6.8-7.2 M354.1,328.9v-4.9c0-1.3,1-2.4,2.3-2.4h125c1.3,0,2.3,1.1,2.3,2.4V338c0,1.3-1,2.4-2.3,2.4h-95.2 M493.7,333.2
	v-9.3c0-1.3,1-2.4,2.2-2.4h21.2c1.2,0,2.2,1.1,2.2,2.4V338c0,1.3-1,2.4-2.2,2.4h-10.8"/>
<path class="st3" d="M682.2,200.1H573c-3.8,0-6.8,3.2-6.8,7.2V233c0,4,3,7.2,6.8,7.2h171.7c3.8,0,6.8-3.2,6.8-7.2v-25.7
	c0-4-3-7.2-6.8-7.2 M576.3,218v-4.9c0-1.3,1-2.4,2.3-2.4h125c1.3,0,2.3,1.1,2.3,2.4v14.1c0,1.3-1,2.4-2.3,2.4h-95.2 M715.8,222.3
	v-9.3c0-1.3,1-2.4,2.2-2.4h21.2c1.2,0,2.2,1.1,2.2,2.4v14.1c0,1.3-1,2.4-2.2,2.4h-10.8"/>
<path class="st4" d="M682.2,255.5H573c-3.8,0-6.8,3.2-6.8,7.2v25.7c0,4,3,7.2,6.8,7.2h171.7c3.8,0,6.8-3.2,6.8-7.2v-25.7
	c0-4-3-7.2-6.8-7.2 M576.3,273.5v-4.9c0-1.3,1-2.4,2.3-2.4h125c1.3,0,2.3,1.1,2.3,2.4v14.1c0,1.3-1,2.4-2.3,2.4h-95.2 M715.8,277.8
	v-9.3c0-1.3,1-2.4,2.2-2.4h21.2c1.2,0,2.2,1.1,2.2,2.4v14.1c0,1.3-1,2.4-2.2,2.4h-10.8"/>
<path class="st0" d="M682.2,310.9H573c-3.8,0-6.8,3.2-6.8,7.2v25.7c0,4,3,7.2,6.8,7.2h171.7c3.8,0,6.8-3.2,6.8-7.2v-25.7
	c0-4-3-7.2-6.8-7.2 M576.3,328.9v-4.9c0-1.3,1-2.4,2.3-2.4h125c1.3,0,2.3,1.1,2.3,2.4V338c0,1.3-1,2.4-2.3,2.4h-95.2 M715.8,333.2
	v-9.3c0-1.3,1-2.4,2.2-2.4h21.2c1.2,0,2.2,1.1,2.2,2.4V338c0,1.3-1,2.4-2.2,2.4h-10.8"/>
<path class="st0" d="M237.9,365.9H128.7c-3.8,0-6.8,3.2-6.8,7.2v25.7c0,4,3,7.2,6.8,7.2h171.7c3.8,0,6.8-3.2,6.8-7.2v-25.7
	c0-4-3-7.2-6.8-7.2 M131.9,383.9v-4.9c0-1.3,1-2.4,2.3-2.4h125c1.3,0,2.3,1.1,2.3,2.4V393c0,1.3-1,2.4-2.3,2.4H164 M271.5,388.2
	v-9.3c0-1.3,1-2.4,2.2-2.4h21.2c1.2,0,2.2,1.1,2.2,2.4V393c0,1.3-1,2.4-2.2,2.4h-10.8"/>
<path class="st0" d="M460.1,365.9H350.9c-3.8,0-6.8,3.2-6.8,7.2v25.7c0,4,3,7.2,6.8,7.2h171.7c3.8,0,6.8-3.2,6.8-7.2v-25.7
	c0-4-3-7.2-6.8-7.2 M354.1,383.9v-4.9c0-1.3,1-2.4,2.3-2.4h125c1.3,0,2.3,1.1,2.3,2.4V393c0,1.3-1,2.4-2.3,2.4h-95.2 M493.7,388.2
	v-9.3c0-1.3,1-2.4,2.2-2.4h21.2c1.2,0,2.2,1.1,2.2,2.4V393c0,1.3-1,2.4-2.2,2.4h-10.8"/>
<path class="st0" d="M682.2,365.9H573c-3.8,0-6.8,3.2-6.8,7.2v25.7c0,4,3,7.2,6.8,7.2h171.7c3.8,0,6.8-3.2,6.8-7.2v-25.7
	c0-4-3-7.2-6.8-7.2 M576.3,383.9v-4.9c0-1.3,1-2.4,2.3-2.4h125c1.3,0,2.3,1.1,2.3,2.4V393c0,1.3-1,2.4-2.3,2.4h-95.2 M715.8,388.2
	v-9.3c0-1.3,1-2.4,2.2-2.4h21.2c1.2,0,2.2,1.1,2.2,2.4V393c0,1.3-1,2.4-2.2,2.4h-10.8"/>
<path class="st5" d="M783.7,143.8c0,0,0.6,29.4,5.7,36.5c5.1,7.2,21.1,8,21.1,8s-15.4,0-21.1,8c-5.7,8-5.7,25.7-5.7,25.7
	s0.3-17.2-5.7-25.7c-6-8.5-21.1-8-21.1-8s17-2.1,21.1-8C782.3,174.4,783.7,143.8,783.7,143.8z"/>
<path class="st5" d="M88.2,255.8c0,0,0.6,29.4,5.7,36.5c5.1,7.2,21.1,8,21.1,8s-15.4,0-21.1,8c-5.7,8-5.7,25.7-5.7,25.7
	s0.3-17.2-5.7-25.7c-6-8.5-21.1-8-21.1-8s17-2.1,21.1-8C86.7,286.4,88.2,255.8,88.2,255.8z"/>
<path class="st5" d="M753.7,123.3c0,0,0.4,20.7,4,25.7s14.9,5.6,14.9,5.6s-10.8,0-14.9,5.6c-4,5.6-4,18.1-4,18.1s0.2-12.1-4-18.1
	c-4.2-6-14.9-5.6-14.9-5.6s11.9-1.5,14.9-5.6C752.7,144.9,753.7,123.3,753.7,123.3z"/>
<path class="st5" d="M341.7,126.8c0,0,0.4,20.7,4,25.7s14.9,5.6,14.9,5.6s-10.8,0-14.9,5.6s-4,18.1-4,18.1s0.2-12.1-4-18.1
	c-4.2-6-14.9-5.6-14.9-5.6s11.9-1.5,14.9-5.6C340.7,148.4,341.7,126.8,341.7,126.8z"/>
<path class="st5" d="M79.4,194c0,0,0.4,20.7,4,25.7s14.9,5.6,14.9,5.6s-10.8,0-14.9,5.6c-4,5.6-4,18.1-4,18.1s0.2-12.1-4-18.1
	c-4.2-6-14.9-5.6-14.9-5.6s11.9-1.5,14.9-5.6C78.3,215.6,79.4,194,79.4,194z"/>
<line class="st5" x1="196" y1="137" x2="243" y2="137"/>
<line class="st5" x1="637" y1="140" x2="684" y2="140"/>
<line class="st6" x1="780" y1="322" x2="810" y2="322"/>
<line class="st5" x1="56" y1="365" x2="103" y2="365"/>
<line class="st5" x1="15" y1="275" x2="62" y2="275"/>
<line class="st5" x1="95" y1="180" x2="170" y2="180"/>
<line class="st5" x1="435.5" y1="115.5" x2="449" y2="115.5"/>
<line class="st5" x1="774.5" y1="369.5" x2="788" y2="369.5"/>
<line class="st5" x1="33.5" y1="321.5" x2="47" y2="321.5"/>
<line class="st5" x1="779.5" y1="243.5" x2="793" y2="243.5"/>
<line class="st7" x1="783" y1="276.5" x2="838.5" y2="276.5"/>
<line class="st5" x1="392" y1="143" x2="467" y2="143"/>
</svg>
